<?xml version="1.0" standalone="no"?>
<!DOCTYPE svg PUBLIC "-//W3C//DTD SVG 20010904//EN"
 "http://www.w3.org/TR/2001/REC-SVG-20010904/DTD/svg10.dtd">
<svg version="1.0" xmlns="http://www.w3.org/2000/svg"
 width="480.000000pt" height="192.000000pt" viewBox="0 0 480.000000 192.000000"
 preserveAspectRatio="xMidYMid meet">

<g transform="translate(0.000000,192.000000) scale(0.100000,-0.100000)"
fill="#000000" stroke="none">
<path d="M3884 1354 c-50 -18 -111 -74 -130 -120 -15 -35 -20 -204 -6 -204 4
1 36 9 72 19 l65 18 3 55 c5 96 -7 93 358 96 l314 3 0 74 0 75 -317 -1 c-253
0 -327 -4 -359 -15z"/>
<path d="M545 1351 c-252 -6 -273 -7 -311 -28 -22 -12 -46 -28 -53 -37 -15
-18 -9 -19 194 -41 77 -9 196 -22 265 -31 69 -8 166 -14 215 -12 l90 3 0 75 0
75 -65 1 c-36 0 -186 -2 -335 -5z"/>
<path d="M1198 1323 l-38 -4 0 -89 c0 -49 3 -91 8 -93 4 -3 38 -8 75 -12 l68
-7 -3 104 -3 103 -35 1 c-19 1 -52 -1 -72 -3z"/>
<path d="M2057 1306 c-95 -34 -147 -109 -147 -214 0 -58 2 -62 23 -62 12 0 45
-3 73 -6 l51 -6 -5 30 c-6 45 14 97 44 111 17 7 122 11 329 11 l305 0 0 75 0
75 -317 0 c-239 -1 -327 -4 -356 -14z"/>
<path d="M2886 1228 c25 -51 47 -94 48 -95 5 -6 146 32 146 39 0 5 -16 40 -35
78 l-35 70 -85 0 -85 0 46 -92z"/>
<path d="M3430 1090 l-110 -219 33 -5 c17 -3 53 -7 79 -10 l47 -6 116 230 115
230 -85 0 -85 0 -110 -220z"/>
<path d="M70 1199 c-17 -39 -20 -66 -20 -256 l0 -213 75 0 75 0 0 75 0 75 265
0 265 0 0 75 0 75 -265 0 -265 0 0 54 c0 47 4 57 26 75 24 19 41 21 178 22
168 2 157 6 -94 34 -80 9 -162 19 -182 22 -37 5 -38 4 -58 -38z"/>
<path d="M4510 1091 l-85 -48 -3 -104 -2 -104 77 -45 c43 -25 83 -46 90 -48 7
-2 51 18 98 44 l85 48 0 102 0 102 -52 30 c-29 16 -69 39 -88 50 l-36 21 -84
-48z m175 -61 c20 -19 25 -33 25 -72 l0 -48 -77 0 c-88 0 -91 -17 -3 -22 54
-3 55 -4 58 -35 l3 -33 -85 0 c-82 0 -85 1 -105 29 -16 22 -21 44 -21 92 0 55
3 67 28 92 25 27 31 29 89 25 49 -3 68 -9 88 -28z"/>
<path d="M4555 980 c-4 -6 12 -10 40 -10 28 0 44 4 40 10 -3 6 -21 10 -40 10
-19 0 -37 -4 -40 -10z"/>
<path d="M2985 1123 c-11 -2 -37 -9 -57 -14 l-38 -10 54 -108 c60 -120 51
-113 174 -127 l63 -7 -68 137 c-70 142 -71 142 -128 129z"/>
<path d="M1108 1114 c-4 -3 -5 -97 -2 -208 6 -226 14 -264 73 -329 20 -22 59
-51 86 -63 48 -23 60 -24 288 -24 l237 0 0 74 0 75 -236 3 -236 3 -29 33 -29
32 0 194 c0 220 9 199 -90 211 -31 3 -59 3 -62 -1z"/>
<path d="M3745 1006 l-80 -22 -3 -68 c-2 -38 1 -73 5 -77 4 -4 38 -11 75 -15
l66 -7 4 29 3 29 263 3 262 2 0 75 0 75 -257 -1 c-232 -1 -266 -3 -338 -23z"/>
<path d="M2135 1009 c88 -12 421 -49 440 -49 10 0 15 10 15 30 l0 30 -257 -1
c-180 -1 -240 -4 -198 -10z"/>
<path d="M1841 923 c0 -49 4 -136 8 -195 6 -91 11 -112 34 -147 15 -22 38 -48
52 -57 25 -16 29 -15 148 44 l122 61 -82 0 c-110 1 -118 9 -128 124 -4 47 -4
91 0 97 4 6 98 10 272 10 238 0 265 2 259 16 -3 9 -6 26 -6 39 0 21 -6 23 -97
34 -54 6 -193 22 -310 36 -116 14 -225 25 -242 25 l-31 0 1 -87z"/>
<path d="M3118 724 c33 -66 80 -157 105 -203 l45 -84 83 164 c46 90 87 172 91
181 6 14 -3 17 -69 24 -72 6 -77 5 -93 -16 l-18 -23 -7 22 c-9 28 -32 37 -123
46 l-73 7 59 -118z"/>
<path d="M3752 713 c7 -95 24 -138 73 -186 60 -59 105 -67 355 -67 119 0 258
3 308 6 l92 7 0 73 0 74 -318 0 c-366 0 -345 -5 -355 94 -3 32 -7 59 -9 61 -2
1 -36 6 -77 10 l-74 7 5 -79z"/>
<path d="M170 685 c0 -65 56 -144 125 -176 36 -17 70 -19 368 -19 l327 0 0 75
0 75 -311 0 c-200 0 -317 4 -330 11 -11 5 -24 21 -29 35 -9 22 -14 24 -80 24
-68 0 -70 -1 -70 -25z"/>
<path d="M2585 660 l-230 -5 -114 -59 c-102 -51 -113 -59 -95 -70 13 -7 125
-12 352 -14 l332 -3 0 75 c0 41 -3 76 -7 78 -5 2 -111 1 -238 -2z"/>
</g>
</svg>
